<mxfile host="app.diagrams.net" modified="2021-11-04T17:14:42.878Z" agent="5.0 (Windows NT 10.0; Win64; x64) AppleWebKit/537.36 (KHTML, like Gecko) Chrome/95.0.4638.69 Safari/537.36" etag="sKIR1NZfMKSlOCG2f8_5" version="15.6.6" type="github">
  <diagram id="WQzuJTd1C2v_Gwr3IN8D" name="Page-1">
    <mxGraphModel dx="3752" dy="2141" grid="1" gridSize="10" guides="1" tooltips="1" connect="1" arrows="1" fold="1" page="1" pageScale="1" pageWidth="291" pageHeight="413" math="0" shadow="0">
      <root>
        <mxCell id="0" />
        <mxCell id="1" parent="0" />
        <mxCell id="2phvOXHi10tVbed8jPcv-272" value="" style="rounded=0;whiteSpace=wrap;html=1;labelBackgroundColor=default;fontSize=22;fontColor=default;strokeColor=default;fillColor=default;align=left;" vertex="1" parent="1">
          <mxGeometry x="1830" y="278.12" width="410" height="490" as="geometry" />
        </mxCell>
        <mxCell id="2phvOXHi10tVbed8jPcv-252" value="" style="rounded=0;whiteSpace=wrap;html=1;labelBackgroundColor=default;fontSize=22;fontColor=default;strokeColor=default;fillColor=default;align=left;" vertex="1" parent="1">
          <mxGeometry x="1090" y="290" width="410" height="451" as="geometry" />
        </mxCell>
        <mxCell id="2phvOXHi10tVbed8jPcv-167" value="" style="rounded=0;whiteSpace=wrap;html=1;labelBackgroundColor=default;fontSize=22;fontColor=default;strokeColor=default;fillColor=default;align=left;" vertex="1" parent="1">
          <mxGeometry x="320" y="10" width="670" height="750" as="geometry" />
        </mxCell>
        <mxCell id="2phvOXHi10tVbed8jPcv-122" value="" style="rounded=0;whiteSpace=wrap;html=1;labelBackgroundColor=default;fontSize=22;fontColor=default;strokeColor=default;fillColor=default;align=left;" vertex="1" parent="1">
          <mxGeometry x="-310" y="10" width="580" height="1520" as="geometry" />
        </mxCell>
        <mxCell id="2phvOXHi10tVbed8jPcv-68" style="edgeStyle=orthogonalEdgeStyle;rounded=0;orthogonalLoop=1;jettySize=auto;html=1;exitX=0.5;exitY=1;exitDx=0;exitDy=0;labelBackgroundColor=default;fontColor=default;strokeColor=default;entryX=0.5;entryY=0;entryDx=0;entryDy=0;" edge="1" parent="1" source="2phvOXHi10tVbed8jPcv-49" target="2phvOXHi10tVbed8jPcv-69">
          <mxGeometry relative="1" as="geometry">
            <mxPoint x="-220.24137931034488" y="580" as="targetPoint" />
          </mxGeometry>
        </mxCell>
        <mxCell id="2phvOXHi10tVbed8jPcv-31" value="&lt;div style=&quot;text-align: left&quot;&gt;&lt;b&gt;Pre- QC&lt;/b&gt;&lt;/div&gt;a. Demographic Table&lt;br&gt;b. Summary Plots" style="rounded=0;whiteSpace=wrap;html=1;labelBackgroundColor=default;fontColor=default;strokeColor=default;fillColor=default;spacingLeft=6;spacingRight=6;" vertex="1" parent="1">
          <mxGeometry x="96" y="54" width="154" height="46" as="geometry" />
        </mxCell>
        <mxCell id="2phvOXHi10tVbed8jPcv-2" value="Pre-Processing and QC" style="text;html=1;strokeColor=none;fillColor=none;align=center;verticalAlign=middle;whiteSpace=wrap;rounded=0;fontColor=default;fontStyle=1;fontSize=22;" vertex="1" parent="1">
          <mxGeometry x="-355" y="-22" width="330" height="30" as="geometry" />
        </mxCell>
        <mxCell id="2phvOXHi10tVbed8jPcv-11" style="edgeStyle=orthogonalEdgeStyle;rounded=0;orthogonalLoop=1;jettySize=auto;html=1;exitX=0.5;exitY=1;exitDx=0;exitDy=0;entryX=0.5;entryY=0;entryDx=0;entryDy=0;fontColor=default;strokeColor=default;labelBackgroundColor=default;" edge="1" parent="1" source="2phvOXHi10tVbed8jPcv-7" target="2phvOXHi10tVbed8jPcv-9">
          <mxGeometry relative="1" as="geometry" />
        </mxCell>
        <mxCell id="2phvOXHi10tVbed8jPcv-109" style="edgeStyle=orthogonalEdgeStyle;rounded=0;orthogonalLoop=1;jettySize=auto;html=1;exitX=1;exitY=0.5;exitDx=0;exitDy=0;entryX=1;entryY=0.5;entryDx=0;entryDy=0;labelBackgroundColor=default;fontColor=default;strokeColor=default;" edge="1" parent="1" source="2phvOXHi10tVbed8jPcv-7" target="2phvOXHi10tVbed8jPcv-108">
          <mxGeometry relative="1" as="geometry">
            <Array as="points">
              <mxPoint x="40" y="69" />
              <mxPoint x="40" y="1245" />
            </Array>
          </mxGeometry>
        </mxCell>
        <mxCell id="2phvOXHi10tVbed8jPcv-7" value="Raw IDATS" style="rounded=1;whiteSpace=wrap;html=1;fontColor=default;strokeColor=default;fillColor=default;labelBackgroundColor=default;" vertex="1" parent="1">
          <mxGeometry x="-120" y="54" width="80" height="30" as="geometry" />
        </mxCell>
        <mxCell id="2phvOXHi10tVbed8jPcv-19" style="edgeStyle=orthogonalEdgeStyle;rounded=0;orthogonalLoop=1;jettySize=auto;html=1;exitX=0.5;exitY=1;exitDx=0;exitDy=0;labelBackgroundColor=default;fontColor=default;strokeColor=default;entryX=0.5;entryY=0;entryDx=0;entryDy=0;" edge="1" parent="1" source="2phvOXHi10tVbed8jPcv-9" target="2phvOXHi10tVbed8jPcv-33">
          <mxGeometry relative="1" as="geometry">
            <mxPoint x="-80" y="169" as="targetPoint" />
          </mxGeometry>
        </mxCell>
        <mxCell id="2phvOXHi10tVbed8jPcv-39" style="edgeStyle=orthogonalEdgeStyle;rounded=0;orthogonalLoop=1;jettySize=auto;html=1;exitX=0;exitY=0.5;exitDx=0;exitDy=0;labelBackgroundColor=default;fontColor=default;strokeColor=default;entryX=0.75;entryY=1;entryDx=0;entryDy=0;" edge="1" parent="1" source="2phvOXHi10tVbed8jPcv-9" target="2phvOXHi10tVbed8jPcv-41">
          <mxGeometry relative="1" as="geometry">
            <mxPoint x="-100" y="280" as="targetPoint" />
            <Array as="points">
              <mxPoint x="-150" y="129" />
              <mxPoint x="-150" y="310" />
            </Array>
          </mxGeometry>
        </mxCell>
        <mxCell id="2phvOXHi10tVbed8jPcv-52" style="edgeStyle=orthogonalEdgeStyle;rounded=0;orthogonalLoop=1;jettySize=auto;html=1;exitX=1;exitY=0.5;exitDx=0;exitDy=0;labelBackgroundColor=default;fontColor=default;strokeColor=default;entryX=0.5;entryY=0;entryDx=0;entryDy=0;" edge="1" parent="1" source="2phvOXHi10tVbed8jPcv-9" target="2phvOXHi10tVbed8jPcv-53">
          <mxGeometry relative="1" as="geometry">
            <mxPoint x="-59.71428571428578" y="390" as="targetPoint" />
            <Array as="points">
              <mxPoint x="-10" y="129" />
              <mxPoint x="-10" y="350" />
              <mxPoint x="-80" y="350" />
            </Array>
          </mxGeometry>
        </mxCell>
        <mxCell id="2phvOXHi10tVbed8jPcv-82" style="edgeStyle=orthogonalEdgeStyle;rounded=0;orthogonalLoop=1;jettySize=auto;html=1;exitX=1;exitY=0.25;exitDx=0;exitDy=0;labelBackgroundColor=default;fontColor=default;strokeColor=default;entryX=1;entryY=0.5;entryDx=0;entryDy=0;" edge="1" parent="1" source="2phvOXHi10tVbed8jPcv-9" target="2phvOXHi10tVbed8jPcv-83">
          <mxGeometry relative="1" as="geometry">
            <mxPoint x="10" y="860" as="targetPoint" />
            <Array as="points">
              <mxPoint x="20" y="119" />
              <mxPoint x="20" y="790" />
            </Array>
          </mxGeometry>
        </mxCell>
        <mxCell id="2phvOXHi10tVbed8jPcv-9" value="&amp;nbsp;Raw mSet Generation" style="rounded=1;whiteSpace=wrap;html=1;fontColor=default;strokeColor=default;fillColor=default;labelBackgroundColor=default;" vertex="1" parent="1">
          <mxGeometry x="-120" y="109" width="80" height="40" as="geometry" />
        </mxCell>
        <mxCell id="2phvOXHi10tVbed8jPcv-48" style="edgeStyle=orthogonalEdgeStyle;rounded=0;orthogonalLoop=1;jettySize=auto;html=1;exitX=0.5;exitY=1;exitDx=0;exitDy=0;labelBackgroundColor=default;fontColor=default;strokeColor=default;entryX=0.5;entryY=0;entryDx=0;entryDy=0;" edge="1" parent="1" source="2phvOXHi10tVbed8jPcv-15" target="2phvOXHi10tVbed8jPcv-49">
          <mxGeometry relative="1" as="geometry">
            <mxPoint x="-219.71428571428578" y="150" as="targetPoint" />
          </mxGeometry>
        </mxCell>
        <mxCell id="2phvOXHi10tVbed8jPcv-15" value="Phenotype file" style="rounded=1;whiteSpace=wrap;html=1;fontColor=default;strokeColor=default;fillColor=default;labelBackgroundColor=default;" vertex="1" parent="1">
          <mxGeometry x="-260" y="54" width="80" height="30" as="geometry" />
        </mxCell>
        <mxCell id="2phvOXHi10tVbed8jPcv-56" style="edgeStyle=orthogonalEdgeStyle;rounded=0;orthogonalLoop=1;jettySize=auto;html=1;exitX=1;exitY=0.5;exitDx=0;exitDy=0;entryX=0;entryY=0.5;entryDx=0;entryDy=0;labelBackgroundColor=default;fontColor=default;strokeColor=default;" edge="1" parent="1" source="2phvOXHi10tVbed8jPcv-17" target="2phvOXHi10tVbed8jPcv-46">
          <mxGeometry relative="1" as="geometry" />
        </mxCell>
        <mxCell id="2phvOXHi10tVbed8jPcv-72" style="rounded=0;orthogonalLoop=1;jettySize=auto;html=1;entryX=0;entryY=0.333;entryDx=0;entryDy=0;entryPerimeter=0;labelBackgroundColor=default;fontColor=default;strokeColor=default;" edge="1" parent="1" source="2phvOXHi10tVbed8jPcv-17" target="2phvOXHi10tVbed8jPcv-62">
          <mxGeometry relative="1" as="geometry" />
        </mxCell>
        <mxCell id="2phvOXHi10tVbed8jPcv-17" value="Annotated Sex&amp;nbsp;" style="rounded=1;whiteSpace=wrap;html=1;fontColor=default;strokeColor=default;fillColor=default;labelBackgroundColor=default;" vertex="1" parent="1">
          <mxGeometry x="-260" y="485.5" width="80" height="35" as="geometry" />
        </mxCell>
        <mxCell id="2phvOXHi10tVbed8jPcv-78" style="edgeStyle=orthogonalEdgeStyle;rounded=0;orthogonalLoop=1;jettySize=auto;html=1;exitX=0.5;exitY=1;exitDx=0;exitDy=0;labelBackgroundColor=default;fontColor=default;strokeColor=default;" edge="1" parent="1" source="2phvOXHi10tVbed8jPcv-24" target="2phvOXHi10tVbed8jPcv-79">
          <mxGeometry relative="1" as="geometry">
            <mxPoint x="-80.24137931034488" y="730" as="targetPoint" />
          </mxGeometry>
        </mxCell>
        <mxCell id="2phvOXHi10tVbed8jPcv-24" value="Extract SNP Genotyping probes" style="rounded=1;whiteSpace=wrap;html=1;fontColor=default;strokeColor=default;fillColor=default;labelBackgroundColor=default;" vertex="1" parent="1">
          <mxGeometry x="-120" y="640" width="80" height="60" as="geometry" />
        </mxCell>
        <mxCell id="2phvOXHi10tVbed8jPcv-28" value="Plots Generated" style="text;html=1;strokeColor=none;fillColor=none;align=center;verticalAlign=middle;whiteSpace=wrap;rounded=0;fontColor=default;fontStyle=1;fontSize=16;" vertex="1" parent="1">
          <mxGeometry x="90" y="17" width="160" height="30" as="geometry" />
        </mxCell>
        <mxCell id="2phvOXHi10tVbed8jPcv-29" value="1." style="text;html=1;strokeColor=none;fillColor=none;align=center;verticalAlign=middle;whiteSpace=wrap;rounded=0;dashed=1;labelBackgroundColor=default;fontColor=default;fontStyle=1" vertex="1" parent="1">
          <mxGeometry x="-260" y="29" width="30" height="30" as="geometry" />
        </mxCell>
        <mxCell id="2phvOXHi10tVbed8jPcv-32" value="a. Intensity Histograms&lt;br&gt;&lt;br&gt;b. Barplots or Heatmaps per Plate / Chip&lt;br&gt;&lt;br&gt;c. Scatter with cutoff annotated" style="rounded=0;whiteSpace=wrap;html=1;labelBackgroundColor=default;fontColor=default;strokeColor=default;fillColor=default;spacingLeft=6;spacingRight=6;" vertex="1" parent="1">
          <mxGeometry x="96" y="144" width="154" height="111" as="geometry" />
        </mxCell>
        <mxCell id="2phvOXHi10tVbed8jPcv-33" value="Extract median intensities" style="rounded=1;whiteSpace=wrap;html=1;fontColor=default;strokeColor=default;fillColor=default;labelBackgroundColor=default;" vertex="1" parent="1">
          <mxGeometry x="-120" y="180" width="80" height="60" as="geometry" />
        </mxCell>
        <mxCell id="2phvOXHi10tVbed8jPcv-34" value="2." style="text;html=1;strokeColor=none;fillColor=none;align=center;verticalAlign=middle;whiteSpace=wrap;rounded=0;dashed=1;labelBackgroundColor=default;fontColor=default;fontStyle=1" vertex="1" parent="1">
          <mxGeometry x="-120" y="155" width="30" height="30" as="geometry" />
        </mxCell>
        <mxCell id="2phvOXHi10tVbed8jPcv-40" value="Bisulphite Conversion Check" style="rounded=1;whiteSpace=wrap;html=1;fontColor=default;strokeColor=default;fillColor=default;labelBackgroundColor=default;" vertex="1" parent="1">
          <mxGeometry x="-120" y="280" width="80" height="60" as="geometry" />
        </mxCell>
        <mxCell id="2phvOXHi10tVbed8jPcv-41" value="3." style="text;html=1;strokeColor=none;fillColor=none;align=center;verticalAlign=middle;whiteSpace=wrap;rounded=0;dashed=1;labelBackgroundColor=default;fontColor=default;fontStyle=1" vertex="1" parent="1">
          <mxGeometry x="-115" y="257" width="30" height="30" as="geometry" />
        </mxCell>
        <mxCell id="2phvOXHi10tVbed8jPcv-42" value="1." style="text;html=1;strokeColor=none;fillColor=none;align=center;verticalAlign=middle;whiteSpace=wrap;rounded=0;dashed=1;labelBackgroundColor=default;fontColor=default;fontStyle=1" vertex="1" parent="1">
          <mxGeometry x="66" y="59" width="30" height="30" as="geometry" />
        </mxCell>
        <mxCell id="2phvOXHi10tVbed8jPcv-43" value="2." style="text;html=1;strokeColor=none;fillColor=none;align=center;verticalAlign=middle;whiteSpace=wrap;rounded=0;dashed=1;labelBackgroundColor=default;fontColor=default;fontStyle=1" vertex="1" parent="1">
          <mxGeometry x="66" y="184.5" width="30" height="30" as="geometry" />
        </mxCell>
        <mxCell id="2phvOXHi10tVbed8jPcv-44" value="a. Median BS histograms&lt;br&gt;" style="rounded=0;whiteSpace=wrap;html=1;labelBackgroundColor=default;fontColor=default;strokeColor=default;fillColor=default;spacingLeft=6;spacingRight=6;" vertex="1" parent="1">
          <mxGeometry x="96" y="287" width="154" height="33" as="geometry" />
        </mxCell>
        <mxCell id="2phvOXHi10tVbed8jPcv-45" value="3." style="text;html=1;strokeColor=none;fillColor=none;align=center;verticalAlign=middle;whiteSpace=wrap;rounded=0;dashed=1;labelBackgroundColor=default;fontColor=default;fontStyle=1" vertex="1" parent="1">
          <mxGeometry x="65" y="288.5" width="30" height="30" as="geometry" />
        </mxCell>
        <mxCell id="2phvOXHi10tVbed8jPcv-71" style="edgeStyle=orthogonalEdgeStyle;rounded=0;orthogonalLoop=1;jettySize=auto;html=1;exitX=0.5;exitY=1;exitDx=0;exitDy=0;entryX=0.5;entryY=0;entryDx=0;entryDy=0;labelBackgroundColor=default;fontColor=default;strokeColor=default;" edge="1" parent="1" source="2phvOXHi10tVbed8jPcv-46" target="2phvOXHi10tVbed8jPcv-62">
          <mxGeometry relative="1" as="geometry" />
        </mxCell>
        <mxCell id="2phvOXHi10tVbed8jPcv-46" value="Sex Check" style="rounded=1;whiteSpace=wrap;html=1;fontColor=default;strokeColor=default;fillColor=default;labelBackgroundColor=default;" vertex="1" parent="1">
          <mxGeometry x="-120" y="488" width="80" height="30" as="geometry" />
        </mxCell>
        <mxCell id="2phvOXHi10tVbed8jPcv-50" style="edgeStyle=orthogonalEdgeStyle;rounded=0;orthogonalLoop=1;jettySize=auto;html=1;exitX=0.5;exitY=1;exitDx=0;exitDy=0;entryX=0.5;entryY=0;entryDx=0;entryDy=0;labelBackgroundColor=default;fontColor=default;strokeColor=default;" edge="1" parent="1" source="2phvOXHi10tVbed8jPcv-49" target="2phvOXHi10tVbed8jPcv-17">
          <mxGeometry relative="1" as="geometry" />
        </mxCell>
        <mxCell id="2phvOXHi10tVbed8jPcv-203" style="edgeStyle=orthogonalEdgeStyle;rounded=0;orthogonalLoop=1;jettySize=auto;html=1;exitX=0;exitY=0.5;exitDx=0;exitDy=0;entryX=0;entryY=0.5;entryDx=0;entryDy=0;labelBackgroundColor=default;fontSize=22;fontColor=default;strokeColor=default;fillColor=default;" edge="1" parent="1" source="2phvOXHi10tVbed8jPcv-49" target="2phvOXHi10tVbed8jPcv-115">
          <mxGeometry relative="1" as="geometry" />
        </mxCell>
        <mxCell id="2phvOXHi10tVbed8jPcv-49" value="Process phenotype (Make factors numerical)&amp;nbsp;&amp;nbsp;" style="rounded=1;whiteSpace=wrap;html=1;fontColor=default;strokeColor=default;fillColor=default;labelBackgroundColor=default;" vertex="1" parent="1">
          <mxGeometry x="-270" y="255" width="100" height="90" as="geometry" />
        </mxCell>
        <mxCell id="2phvOXHi10tVbed8jPcv-54" style="edgeStyle=orthogonalEdgeStyle;rounded=0;orthogonalLoop=1;jettySize=auto;html=1;exitX=0.5;exitY=1;exitDx=0;exitDy=0;entryX=0.5;entryY=0;entryDx=0;entryDy=0;labelBackgroundColor=default;fontColor=default;strokeColor=default;" edge="1" parent="1" source="2phvOXHi10tVbed8jPcv-53" target="2phvOXHi10tVbed8jPcv-46">
          <mxGeometry relative="1" as="geometry" />
        </mxCell>
        <mxCell id="2phvOXHi10tVbed8jPcv-61" style="edgeStyle=orthogonalEdgeStyle;rounded=0;orthogonalLoop=1;jettySize=auto;html=1;exitX=1;exitY=0.75;exitDx=0;exitDy=0;labelBackgroundColor=default;fontColor=default;strokeColor=default;entryX=1;entryY=0.5;entryDx=0;entryDy=0;" edge="1" parent="1" source="2phvOXHi10tVbed8jPcv-53" target="2phvOXHi10tVbed8jPcv-62">
          <mxGeometry relative="1" as="geometry">
            <mxPoint x="-70" y="580" as="targetPoint" />
            <Array as="points">
              <mxPoint x="-20" y="415" />
              <mxPoint x="-20" y="590" />
            </Array>
          </mxGeometry>
        </mxCell>
        <mxCell id="2phvOXHi10tVbed8jPcv-76" style="edgeStyle=orthogonalEdgeStyle;rounded=0;orthogonalLoop=1;jettySize=auto;html=1;exitX=0;exitY=0.5;exitDx=0;exitDy=0;labelBackgroundColor=default;fontColor=default;strokeColor=default;entryX=1;entryY=0.5;entryDx=0;entryDy=0;" edge="1" parent="1" source="2phvOXHi10tVbed8jPcv-53" target="2phvOXHi10tVbed8jPcv-24">
          <mxGeometry relative="1" as="geometry">
            <mxPoint x="-40" y="690" as="targetPoint" />
            <Array as="points">
              <mxPoint y="400" />
              <mxPoint y="670" />
            </Array>
          </mxGeometry>
        </mxCell>
        <mxCell id="2phvOXHi10tVbed8jPcv-53" value="Extract Raw Beta Values" style="rounded=1;whiteSpace=wrap;html=1;fontColor=default;strokeColor=default;fillColor=default;labelBackgroundColor=default;" vertex="1" parent="1">
          <mxGeometry x="-120" y="370" width="80" height="60" as="geometry" />
        </mxCell>
        <mxCell id="2phvOXHi10tVbed8jPcv-55" value="4." style="text;html=1;strokeColor=none;fillColor=none;align=center;verticalAlign=middle;whiteSpace=wrap;rounded=0;dashed=1;labelBackgroundColor=default;fontColor=default;fontStyle=1" vertex="1" parent="1">
          <mxGeometry x="-120" y="463" width="30" height="30" as="geometry" />
        </mxCell>
        <mxCell id="2phvOXHi10tVbed8jPcv-58" value="Automated Sex Check Plots" style="rounded=0;whiteSpace=wrap;html=1;labelBackgroundColor=default;fontColor=default;strokeColor=default;fillColor=default;spacingLeft=6;spacingRight=6;" vertex="1" parent="1">
          <mxGeometry x="95" y="485.5" width="154" height="40" as="geometry" />
        </mxCell>
        <mxCell id="2phvOXHi10tVbed8jPcv-59" value="4." style="text;html=1;strokeColor=none;fillColor=none;align=center;verticalAlign=middle;whiteSpace=wrap;rounded=0;dashed=1;labelBackgroundColor=default;fontColor=default;fontStyle=1" vertex="1" parent="1">
          <mxGeometry x="65" y="490.5" width="30" height="30" as="geometry" />
        </mxCell>
        <mxCell id="2phvOXHi10tVbed8jPcv-62" value="Raw priniciple component generation" style="rounded=1;whiteSpace=wrap;html=1;fontColor=default;strokeColor=default;fillColor=default;labelBackgroundColor=default;" vertex="1" parent="1">
          <mxGeometry x="-120" y="560" width="80" height="60" as="geometry" />
        </mxCell>
        <mxCell id="2phvOXHi10tVbed8jPcv-64" value="5." style="text;html=1;strokeColor=none;fillColor=none;align=center;verticalAlign=middle;whiteSpace=wrap;rounded=0;dashed=1;labelBackgroundColor=default;fontColor=default;fontStyle=1" vertex="1" parent="1">
          <mxGeometry x="-120" y="533" width="30" height="30" as="geometry" />
        </mxCell>
        <mxCell id="2phvOXHi10tVbed8jPcv-65" value="5." style="text;html=1;strokeColor=none;fillColor=none;align=center;verticalAlign=middle;whiteSpace=wrap;rounded=0;dashed=1;labelBackgroundColor=default;fontColor=default;fontStyle=1" vertex="1" parent="1">
          <mxGeometry x="65" y="596.5" width="30" height="30" as="geometry" />
        </mxCell>
        <mxCell id="2phvOXHi10tVbed8jPcv-66" value="a. PC Scatter plot with annotated and inferred sex&lt;br&gt;&lt;br&gt;b. PC Scatter plot comparing brain region" style="rounded=0;whiteSpace=wrap;html=1;labelBackgroundColor=default;fontColor=default;strokeColor=default;fillColor=default;spacingLeft=6;spacingRight=6;" vertex="1" parent="1">
          <mxGeometry x="93" y="564" width="154" height="95" as="geometry" />
        </mxCell>
        <mxCell id="2phvOXHi10tVbed8jPcv-70" style="edgeStyle=orthogonalEdgeStyle;rounded=0;orthogonalLoop=1;jettySize=auto;html=1;exitX=1;exitY=0.5;exitDx=0;exitDy=0;entryX=0;entryY=0.5;entryDx=0;entryDy=0;labelBackgroundColor=default;fontColor=default;strokeColor=default;" edge="1" parent="1" source="2phvOXHi10tVbed8jPcv-69" target="2phvOXHi10tVbed8jPcv-62">
          <mxGeometry relative="1" as="geometry" />
        </mxCell>
        <mxCell id="2phvOXHi10tVbed8jPcv-80" style="edgeStyle=orthogonalEdgeStyle;rounded=0;orthogonalLoop=1;jettySize=auto;html=1;exitX=0.5;exitY=1;exitDx=0;exitDy=0;entryX=0;entryY=0.5;entryDx=0;entryDy=0;labelBackgroundColor=default;fontColor=default;strokeColor=default;" edge="1" parent="1" source="2phvOXHi10tVbed8jPcv-69" target="2phvOXHi10tVbed8jPcv-79">
          <mxGeometry relative="1" as="geometry" />
        </mxCell>
        <mxCell id="2phvOXHi10tVbed8jPcv-97" style="edgeStyle=orthogonalEdgeStyle;rounded=0;orthogonalLoop=1;jettySize=auto;html=1;exitX=0.25;exitY=1;exitDx=0;exitDy=0;entryX=0;entryY=0.5;entryDx=0;entryDy=0;labelBackgroundColor=default;fontColor=default;strokeColor=default;" edge="1" parent="1" source="2phvOXHi10tVbed8jPcv-69" target="2phvOXHi10tVbed8jPcv-93">
          <mxGeometry relative="1" as="geometry" />
        </mxCell>
        <mxCell id="2phvOXHi10tVbed8jPcv-69" value="Annotated Brain Region" style="rounded=1;whiteSpace=wrap;html=1;fontColor=default;strokeColor=default;fillColor=default;labelBackgroundColor=default;" vertex="1" parent="1">
          <mxGeometry x="-260" y="572.5" width="80" height="35" as="geometry" />
        </mxCell>
        <mxCell id="2phvOXHi10tVbed8jPcv-73" value="6." style="text;html=1;strokeColor=none;fillColor=none;align=center;verticalAlign=middle;whiteSpace=wrap;rounded=0;dashed=1;labelBackgroundColor=default;fontColor=default;fontStyle=1" vertex="1" parent="1">
          <mxGeometry x="65" y="720.25" width="30" height="30" as="geometry" />
        </mxCell>
        <mxCell id="2phvOXHi10tVbed8jPcv-74" value="a. Relatedness matrix of actual vs. inferred relations" style="rounded=0;whiteSpace=wrap;html=1;labelBackgroundColor=default;fontColor=default;strokeColor=default;fillColor=default;spacingLeft=6;spacingRight=6;" vertex="1" parent="1">
          <mxGeometry x="92" y="715.25" width="154" height="59.5" as="geometry" />
        </mxCell>
        <mxCell id="2phvOXHi10tVbed8jPcv-79" value="Relatedness check" style="rounded=1;whiteSpace=wrap;html=1;fontColor=default;strokeColor=default;fillColor=default;labelBackgroundColor=default;" vertex="1" parent="1">
          <mxGeometry x="-120" y="730" width="80" height="30" as="geometry" />
        </mxCell>
        <mxCell id="2phvOXHi10tVbed8jPcv-81" value="6." style="text;html=1;strokeColor=none;fillColor=none;align=center;verticalAlign=middle;whiteSpace=wrap;rounded=0;dashed=1;labelBackgroundColor=default;fontColor=default;fontStyle=1" vertex="1" parent="1">
          <mxGeometry x="-120" y="702" width="30" height="30" as="geometry" />
        </mxCell>
        <mxCell id="2phvOXHi10tVbed8jPcv-84" style="edgeStyle=orthogonalEdgeStyle;rounded=0;orthogonalLoop=1;jettySize=auto;html=1;exitX=0.5;exitY=1;exitDx=0;exitDy=0;labelBackgroundColor=default;fontColor=default;strokeColor=default;entryX=0.5;entryY=0;entryDx=0;entryDy=0;" edge="1" parent="1" source="2phvOXHi10tVbed8jPcv-83" target="2phvOXHi10tVbed8jPcv-85">
          <mxGeometry relative="1" as="geometry">
            <mxPoint x="-80.24137931034488" y="880" as="targetPoint" />
          </mxGeometry>
        </mxCell>
        <mxCell id="2phvOXHi10tVbed8jPcv-96" style="edgeStyle=orthogonalEdgeStyle;rounded=0;orthogonalLoop=1;jettySize=auto;html=1;exitX=0.75;exitY=1;exitDx=0;exitDy=0;entryX=1;entryY=0.5;entryDx=0;entryDy=0;labelBackgroundColor=default;fontColor=default;strokeColor=default;" edge="1" parent="1" source="2phvOXHi10tVbed8jPcv-83" target="2phvOXHi10tVbed8jPcv-91">
          <mxGeometry relative="1" as="geometry">
            <Array as="points">
              <mxPoint x="-20" y="800" />
              <mxPoint x="-20" y="945" />
            </Array>
          </mxGeometry>
        </mxCell>
        <mxCell id="2phvOXHi10tVbed8jPcv-83" value="p-filter mSet" style="rounded=1;whiteSpace=wrap;html=1;fontColor=default;strokeColor=default;fillColor=default;labelBackgroundColor=default;" vertex="1" parent="1">
          <mxGeometry x="-120" y="780" width="80" height="20" as="geometry" />
        </mxCell>
        <mxCell id="2phvOXHi10tVbed8jPcv-86" style="edgeStyle=orthogonalEdgeStyle;rounded=0;orthogonalLoop=1;jettySize=auto;html=1;exitX=0.5;exitY=1;exitDx=0;exitDy=0;labelBackgroundColor=default;fontColor=default;strokeColor=default;entryX=0.5;entryY=0;entryDx=0;entryDy=0;" edge="1" parent="1" source="2phvOXHi10tVbed8jPcv-85" target="2phvOXHi10tVbed8jPcv-87">
          <mxGeometry relative="1" as="geometry">
            <mxPoint x="-79.58823529411757" y="940" as="targetPoint" />
          </mxGeometry>
        </mxCell>
        <mxCell id="2phvOXHi10tVbed8jPcv-85" value="Extract filtered betas" style="rounded=1;whiteSpace=wrap;html=1;fontColor=default;strokeColor=default;fillColor=default;labelBackgroundColor=default;" vertex="1" parent="1">
          <mxGeometry x="-120" y="820" width="80" height="30" as="geometry" />
        </mxCell>
        <mxCell id="2phvOXHi10tVbed8jPcv-87" value="Outlier test" style="rounded=1;whiteSpace=wrap;html=1;fontColor=default;strokeColor=default;fillColor=default;labelBackgroundColor=default;" vertex="1" parent="1">
          <mxGeometry x="-120" y="870" width="80" height="20" as="geometry" />
        </mxCell>
        <mxCell id="2phvOXHi10tVbed8jPcv-95" style="edgeStyle=orthogonalEdgeStyle;rounded=0;orthogonalLoop=1;jettySize=auto;html=1;entryX=0.5;entryY=0;entryDx=0;entryDy=0;labelBackgroundColor=default;fontColor=default;strokeColor=default;" edge="1" parent="1" source="2phvOXHi10tVbed8jPcv-91" target="2phvOXHi10tVbed8jPcv-93">
          <mxGeometry relative="1" as="geometry" />
        </mxCell>
        <mxCell id="2phvOXHi10tVbed8jPcv-91" value="Remove samples failing previous QC" style="rounded=1;whiteSpace=wrap;html=1;fontColor=default;strokeColor=default;fillColor=default;labelBackgroundColor=default;" vertex="1" parent="1">
          <mxGeometry x="-120" y="910" width="80" height="70" as="geometry" />
        </mxCell>
        <mxCell id="2phvOXHi10tVbed8jPcv-98" style="edgeStyle=orthogonalEdgeStyle;rounded=0;orthogonalLoop=1;jettySize=auto;html=1;exitX=0.5;exitY=1;exitDx=0;exitDy=0;labelBackgroundColor=default;fontColor=default;strokeColor=default;entryX=0.5;entryY=0;entryDx=0;entryDy=0;" edge="1" parent="1" source="2phvOXHi10tVbed8jPcv-93" target="2phvOXHi10tVbed8jPcv-99">
          <mxGeometry relative="1" as="geometry">
            <mxPoint x="-79.71428571428578" y="1140" as="targetPoint" />
          </mxGeometry>
        </mxCell>
        <mxCell id="2phvOXHi10tVbed8jPcv-93" value="If high inter-region variation observed, subset mSets&amp;nbsp;" style="rounded=1;whiteSpace=wrap;html=1;fontColor=default;strokeColor=default;fillColor=default;labelBackgroundColor=default;" vertex="1" parent="1">
          <mxGeometry x="-140" y="1010" width="120" height="60" as="geometry" />
        </mxCell>
        <mxCell id="2phvOXHi10tVbed8jPcv-105" style="edgeStyle=orthogonalEdgeStyle;rounded=0;orthogonalLoop=1;jettySize=auto;html=1;exitX=0.5;exitY=1;exitDx=0;exitDy=0;labelBackgroundColor=default;fontColor=default;strokeColor=default;entryX=0.5;entryY=0;entryDx=0;entryDy=0;" edge="1" parent="1" source="2phvOXHi10tVbed8jPcv-99" target="2phvOXHi10tVbed8jPcv-106">
          <mxGeometry relative="1" as="geometry">
            <mxPoint x="-80.24137931034488" y="1150" as="targetPoint" />
          </mxGeometry>
        </mxCell>
        <mxCell id="2phvOXHi10tVbed8jPcv-99" value="Dasen Normalization" style="rounded=1;whiteSpace=wrap;html=1;fontColor=default;strokeColor=default;fillColor=default;labelBackgroundColor=default;" vertex="1" parent="1">
          <mxGeometry x="-130" y="1090" width="100" height="40" as="geometry" />
        </mxCell>
        <mxCell id="2phvOXHi10tVbed8jPcv-102" value="7." style="text;html=1;strokeColor=none;fillColor=none;align=center;verticalAlign=middle;whiteSpace=wrap;rounded=0;dashed=1;labelBackgroundColor=default;fontColor=default;fontStyle=1" vertex="1" parent="1">
          <mxGeometry x="-150" y="1070" width="30" height="30" as="geometry" />
        </mxCell>
        <mxCell id="2phvOXHi10tVbed8jPcv-103" value="7." style="text;html=1;strokeColor=none;fillColor=none;align=center;verticalAlign=middle;whiteSpace=wrap;rounded=0;dashed=1;labelBackgroundColor=default;fontColor=default;fontStyle=1" vertex="1" parent="1">
          <mxGeometry x="65" y="1070" width="30" height="30" as="geometry" />
        </mxCell>
        <mxCell id="2phvOXHi10tVbed8jPcv-104" value="a. Beta distributions pre and post normalisation&lt;br&gt;&lt;br&gt;b. Normalisation violence plots" style="rounded=0;whiteSpace=wrap;html=1;labelBackgroundColor=default;fontColor=default;strokeColor=default;fillColor=default;spacingLeft=6;spacingRight=6;" vertex="1" parent="1">
          <mxGeometry x="93" y="1040" width="154" height="100" as="geometry" />
        </mxCell>
        <mxCell id="2phvOXHi10tVbed8jPcv-106" value="Extract Normalized Betas&amp;nbsp;" style="rounded=1;whiteSpace=wrap;html=1;fontColor=default;strokeColor=default;fillColor=default;labelBackgroundColor=default;" vertex="1" parent="1">
          <mxGeometry x="-130" y="1150" width="100" height="50" as="geometry" />
        </mxCell>
        <mxCell id="2phvOXHi10tVbed8jPcv-113" style="edgeStyle=orthogonalEdgeStyle;rounded=0;orthogonalLoop=1;jettySize=auto;html=1;exitX=0.5;exitY=1;exitDx=0;exitDy=0;entryX=0.5;entryY=0;entryDx=0;entryDy=0;labelBackgroundColor=default;fontColor=default;strokeColor=default;" edge="1" parent="1" source="2phvOXHi10tVbed8jPcv-108" target="2phvOXHi10tVbed8jPcv-111">
          <mxGeometry relative="1" as="geometry" />
        </mxCell>
        <mxCell id="2phvOXHi10tVbed8jPcv-108" value="Raw RGSet Generation" style="rounded=1;whiteSpace=wrap;html=1;fontColor=default;strokeColor=default;fillColor=default;labelBackgroundColor=default;" vertex="1" parent="1">
          <mxGeometry x="-130" y="1220" width="100" height="50" as="geometry" />
        </mxCell>
        <mxCell id="2phvOXHi10tVbed8jPcv-117" style="edgeStyle=orthogonalEdgeStyle;rounded=0;orthogonalLoop=1;jettySize=auto;html=1;exitX=0.5;exitY=1;exitDx=0;exitDy=0;entryX=1;entryY=0.5;entryDx=0;entryDy=0;labelBackgroundColor=default;fontColor=default;strokeColor=default;" edge="1" parent="1" source="2phvOXHi10tVbed8jPcv-111" target="2phvOXHi10tVbed8jPcv-115">
          <mxGeometry relative="1" as="geometry">
            <mxPoint x="-80" y="1410" as="sourcePoint" />
            <Array as="points">
              <mxPoint x="-110" y="1350" />
              <mxPoint x="-110" y="1480" />
            </Array>
          </mxGeometry>
        </mxCell>
        <mxCell id="2phvOXHi10tVbed8jPcv-143" style="edgeStyle=orthogonalEdgeStyle;rounded=0;orthogonalLoop=1;jettySize=auto;html=1;exitX=0.75;exitY=1;exitDx=0;exitDy=0;entryX=0.5;entryY=0;entryDx=0;entryDy=0;labelBackgroundColor=default;fontSize=22;fontColor=default;strokeColor=default;fillColor=default;" edge="1" parent="1" source="2phvOXHi10tVbed8jPcv-111" target="2phvOXHi10tVbed8jPcv-141">
          <mxGeometry relative="1" as="geometry" />
        </mxCell>
        <mxCell id="2phvOXHi10tVbed8jPcv-111" value="Cell type deconvolution (CETS / novel)" style="rounded=1;whiteSpace=wrap;html=1;fontColor=default;strokeColor=default;fillColor=default;labelBackgroundColor=default;" vertex="1" parent="1">
          <mxGeometry x="-130" y="1300" width="100" height="60" as="geometry" />
        </mxCell>
        <mxCell id="2phvOXHi10tVbed8jPcv-115" value="Merge pheno with QC information" style="rounded=1;whiteSpace=wrap;html=1;fontColor=default;strokeColor=default;fillColor=default;labelBackgroundColor=default;spacingLeft=6;spacingRight=6;" vertex="1" parent="1">
          <mxGeometry x="-250" y="1450" width="120" height="60" as="geometry" />
        </mxCell>
        <mxCell id="2phvOXHi10tVbed8jPcv-116" value="9." style="text;html=1;strokeColor=none;fillColor=none;align=center;verticalAlign=middle;whiteSpace=wrap;rounded=0;dashed=1;labelBackgroundColor=default;fontColor=default;fontStyle=1" vertex="1" parent="1">
          <mxGeometry x="-240" y="1420" width="30" height="30" as="geometry" />
        </mxCell>
        <mxCell id="2phvOXHi10tVbed8jPcv-118" value="9." style="text;html=1;strokeColor=none;fillColor=none;align=center;verticalAlign=middle;whiteSpace=wrap;rounded=0;dashed=1;labelBackgroundColor=default;fontColor=default;fontStyle=1" vertex="1" parent="1">
          <mxGeometry x="54" y="1465" width="30" height="30" as="geometry" />
        </mxCell>
        <mxCell id="2phvOXHi10tVbed8jPcv-119" value="&lt;div style=&quot;text-align: left&quot;&gt;&lt;b&gt;Post- QC&lt;/b&gt;&lt;/div&gt;a. Demographic Table&lt;br&gt;b. Summary Plots" style="rounded=0;whiteSpace=wrap;html=1;labelBackgroundColor=default;fontColor=default;strokeColor=default;fillColor=default;spacingLeft=6;spacingRight=6;" vertex="1" parent="1">
          <mxGeometry x="84" y="1452" width="154" height="56" as="geometry" />
        </mxCell>
        <mxCell id="2phvOXHi10tVbed8jPcv-120" value="Steps" style="text;html=1;strokeColor=none;fillColor=none;align=center;verticalAlign=middle;whiteSpace=wrap;rounded=0;fontColor=default;fontStyle=1;fontSize=16;" vertex="1" parent="1">
          <mxGeometry x="400" y="17" width="230" height="30" as="geometry" />
        </mxCell>
        <mxCell id="2phvOXHi10tVbed8jPcv-121" value="Plots Generated" style="text;html=1;strokeColor=none;fillColor=none;align=center;verticalAlign=middle;whiteSpace=wrap;rounded=0;fontColor=default;fontStyle=1;fontSize=16;" vertex="1" parent="1">
          <mxGeometry x="800" y="17" width="160" height="30" as="geometry" />
        </mxCell>
        <mxCell id="2phvOXHi10tVbed8jPcv-124" value="Steps" style="text;html=1;strokeColor=none;fillColor=none;align=center;verticalAlign=middle;whiteSpace=wrap;rounded=0;fontColor=default;fontStyle=1;fontSize=16;" vertex="1" parent="1">
          <mxGeometry x="-230" y="17" width="160" height="30" as="geometry" />
        </mxCell>
        <mxCell id="2phvOXHi10tVbed8jPcv-125" value="Data Exploration" style="text;html=1;strokeColor=none;fillColor=none;align=center;verticalAlign=middle;whiteSpace=wrap;rounded=0;fontColor=default;fontStyle=1;fontSize=22;" vertex="1" parent="1">
          <mxGeometry x="240" y="-22" width="330" height="30" as="geometry" />
        </mxCell>
        <mxCell id="2phvOXHi10tVbed8jPcv-134" style="edgeStyle=orthogonalEdgeStyle;rounded=0;orthogonalLoop=1;jettySize=auto;html=1;exitX=0.5;exitY=1;exitDx=0;exitDy=0;entryX=0;entryY=0.5;entryDx=0;entryDy=0;labelBackgroundColor=default;fontSize=22;fontColor=default;strokeColor=default;fillColor=default;" edge="1" parent="1" source="2phvOXHi10tVbed8jPcv-126" target="2phvOXHi10tVbed8jPcv-131">
          <mxGeometry relative="1" as="geometry">
            <Array as="points">
              <mxPoint x="410" y="130" />
              <mxPoint x="410" y="243" />
            </Array>
          </mxGeometry>
        </mxCell>
        <mxCell id="2phvOXHi10tVbed8jPcv-151" style="edgeStyle=orthogonalEdgeStyle;rounded=0;orthogonalLoop=1;jettySize=auto;html=1;exitX=0.25;exitY=1;exitDx=0;exitDy=0;entryX=0;entryY=0.5;entryDx=0;entryDy=0;labelBackgroundColor=default;fontSize=22;fontColor=default;strokeColor=default;fillColor=default;" edge="1" parent="1" source="2phvOXHi10tVbed8jPcv-126" target="2phvOXHi10tVbed8jPcv-150">
          <mxGeometry relative="1" as="geometry">
            <Array as="points">
              <mxPoint x="390" y="130" />
              <mxPoint x="390" y="375" />
            </Array>
          </mxGeometry>
        </mxCell>
        <mxCell id="2phvOXHi10tVbed8jPcv-159" style="edgeStyle=orthogonalEdgeStyle;rounded=0;orthogonalLoop=1;jettySize=auto;html=1;exitX=0.25;exitY=1;exitDx=0;exitDy=0;entryX=0;entryY=0.5;entryDx=0;entryDy=0;labelBackgroundColor=default;fontSize=22;fontColor=default;strokeColor=default;fillColor=default;" edge="1" parent="1" source="2phvOXHi10tVbed8jPcv-126" target="2phvOXHi10tVbed8jPcv-158">
          <mxGeometry relative="1" as="geometry">
            <Array as="points">
              <mxPoint x="370" y="130" />
              <mxPoint x="370" y="489" />
            </Array>
          </mxGeometry>
        </mxCell>
        <mxCell id="2phvOXHi10tVbed8jPcv-211" style="edgeStyle=orthogonalEdgeStyle;rounded=0;orthogonalLoop=1;jettySize=auto;html=1;entryX=0;entryY=0.5;entryDx=0;entryDy=0;labelBackgroundColor=default;fontSize=22;fontColor=default;strokeColor=default;fillColor=default;" edge="1" parent="1" source="2phvOXHi10tVbed8jPcv-126" target="2phvOXHi10tVbed8jPcv-210">
          <mxGeometry relative="1" as="geometry">
            <Array as="points">
              <mxPoint x="350" y="685" />
            </Array>
          </mxGeometry>
        </mxCell>
        <mxCell id="2phvOXHi10tVbed8jPcv-126" value="&lt;div style=&quot;text-align: left&quot;&gt;&lt;b&gt;Phenotype file&lt;/b&gt;&lt;/div&gt;&lt;div&gt;1. Demographic info&lt;br&gt;&lt;/div&gt;2. Cell Type Proportions&lt;br&gt;3. Batch info" style="rounded=1;whiteSpace=wrap;html=1;fontColor=default;strokeColor=default;fillColor=default;labelBackgroundColor=default;" vertex="1" parent="1">
          <mxGeometry x="345" y="54" width="150" height="76" as="geometry" />
        </mxCell>
        <mxCell id="2phvOXHi10tVbed8jPcv-128" style="edgeStyle=orthogonalEdgeStyle;rounded=0;orthogonalLoop=1;jettySize=auto;html=1;exitX=0.5;exitY=1;exitDx=0;exitDy=0;labelBackgroundColor=default;fontSize=22;fontColor=default;strokeColor=default;fillColor=default;entryX=0.5;entryY=0;entryDx=0;entryDy=0;" edge="1" parent="1" source="2phvOXHi10tVbed8jPcv-127" target="2phvOXHi10tVbed8jPcv-129">
          <mxGeometry relative="1" as="geometry">
            <mxPoint x="610" y="190" as="targetPoint" />
          </mxGeometry>
        </mxCell>
        <mxCell id="2phvOXHi10tVbed8jPcv-154" style="edgeStyle=orthogonalEdgeStyle;rounded=0;orthogonalLoop=1;jettySize=auto;html=1;exitX=1;exitY=1;exitDx=0;exitDy=0;entryX=1;entryY=0.5;entryDx=0;entryDy=0;labelBackgroundColor=default;fontSize=22;fontColor=default;strokeColor=default;fillColor=default;" edge="1" parent="1" source="2phvOXHi10tVbed8jPcv-127" target="2phvOXHi10tVbed8jPcv-150">
          <mxGeometry relative="1" as="geometry">
            <Array as="points">
              <mxPoint x="705" y="115" />
              <mxPoint x="705" y="375" />
            </Array>
          </mxGeometry>
        </mxCell>
        <mxCell id="2phvOXHi10tVbed8jPcv-160" style="edgeStyle=orthogonalEdgeStyle;rounded=0;orthogonalLoop=1;jettySize=auto;html=1;exitX=1;exitY=0.5;exitDx=0;exitDy=0;entryX=1;entryY=0.5;entryDx=0;entryDy=0;labelBackgroundColor=default;fontSize=22;fontColor=default;strokeColor=default;fillColor=default;" edge="1" parent="1" source="2phvOXHi10tVbed8jPcv-127" target="2phvOXHi10tVbed8jPcv-158">
          <mxGeometry relative="1" as="geometry">
            <Array as="points">
              <mxPoint x="730" y="92" />
              <mxPoint x="730" y="489" />
            </Array>
          </mxGeometry>
        </mxCell>
        <mxCell id="2phvOXHi10tVbed8jPcv-127" value="&lt;span style=&quot;font-weight: normal&quot;&gt;Nomalised Beta Matrix&lt;/span&gt;&lt;div style=&quot;text-align: left&quot;&gt;&lt;/div&gt;" style="rounded=1;whiteSpace=wrap;html=1;fontColor=default;strokeColor=default;fillColor=default;labelBackgroundColor=default;fontStyle=1" vertex="1" parent="1">
          <mxGeometry x="535" y="69" width="150" height="46" as="geometry" />
        </mxCell>
        <mxCell id="2phvOXHi10tVbed8jPcv-130" style="edgeStyle=orthogonalEdgeStyle;rounded=0;orthogonalLoop=1;jettySize=auto;html=1;labelBackgroundColor=default;fontSize=22;fontColor=default;strokeColor=default;fillColor=default;entryX=0.5;entryY=0;entryDx=0;entryDy=0;" edge="1" parent="1" source="2phvOXHi10tVbed8jPcv-129" target="2phvOXHi10tVbed8jPcv-131">
          <mxGeometry relative="1" as="geometry">
            <mxPoint x="610" y="270" as="targetPoint" />
          </mxGeometry>
        </mxCell>
        <mxCell id="2phvOXHi10tVbed8jPcv-129" value="&lt;span style=&quot;font-weight: normal&quot;&gt;Principle Component Generation&lt;/span&gt;&lt;div style=&quot;text-align: left&quot;&gt;&lt;/div&gt;" style="rounded=1;whiteSpace=wrap;html=1;fontColor=default;strokeColor=default;fillColor=default;labelBackgroundColor=default;fontStyle=1" vertex="1" parent="1">
          <mxGeometry x="535" y="144" width="150" height="46" as="geometry" />
        </mxCell>
        <mxCell id="2phvOXHi10tVbed8jPcv-229" style="edgeStyle=orthogonalEdgeStyle;rounded=0;orthogonalLoop=1;jettySize=auto;html=1;entryX=0.772;entryY=0.005;entryDx=0;entryDy=0;dashed=1;dashPattern=1 1;labelBackgroundColor=default;fontSize=16;fontColor=default;startArrow=none;startFill=0;strokeColor=#666666;fillColor=#f5f5f5;exitX=0.75;exitY=1;exitDx=0;exitDy=0;entryPerimeter=0;endArrow=none;endFill=0;strokeWidth=5;" edge="1" parent="1" source="2phvOXHi10tVbed8jPcv-131" target="2phvOXHi10tVbed8jPcv-150">
          <mxGeometry relative="1" as="geometry" />
        </mxCell>
        <mxCell id="2phvOXHi10tVbed8jPcv-131" value="&lt;span style=&quot;font-weight: normal&quot;&gt;Correlation analysis with first PCs&lt;/span&gt;&lt;div style=&quot;text-align: left&quot;&gt;&lt;/div&gt;" style="rounded=1;whiteSpace=wrap;html=1;fontColor=default;strokeColor=default;fillColor=default;labelBackgroundColor=default;fontStyle=1" vertex="1" parent="1">
          <mxGeometry x="535" y="220" width="150" height="46" as="geometry" />
        </mxCell>
        <mxCell id="2phvOXHi10tVbed8jPcv-136" value="1." style="text;html=1;strokeColor=none;fillColor=none;align=center;verticalAlign=middle;whiteSpace=wrap;rounded=0;dashed=1;labelBackgroundColor=default;fontColor=default;fontStyle=1" vertex="1" parent="1">
          <mxGeometry x="535" y="119" width="30" height="30" as="geometry" />
        </mxCell>
        <mxCell id="2phvOXHi10tVbed8jPcv-137" value="2." style="text;html=1;strokeColor=none;fillColor=none;align=center;verticalAlign=middle;whiteSpace=wrap;rounded=0;dashed=1;labelBackgroundColor=default;fontColor=default;fontStyle=1" vertex="1" parent="1">
          <mxGeometry x="535" y="195" width="30" height="30" as="geometry" />
        </mxCell>
        <mxCell id="2phvOXHi10tVbed8jPcv-138" value="Scree plots and PC summary statistics&lt;br&gt;&lt;div style=&quot;text-align: left&quot;&gt;&lt;/div&gt;" style="rounded=0;whiteSpace=wrap;html=1;labelBackgroundColor=default;fontColor=default;strokeColor=default;fillColor=default;spacingLeft=6;spacingRight=6;" vertex="1" parent="1">
          <mxGeometry x="806" y="155" width="154" height="46" as="geometry" />
        </mxCell>
        <mxCell id="2phvOXHi10tVbed8jPcv-139" value="1." style="text;html=1;strokeColor=none;fillColor=none;align=center;verticalAlign=middle;whiteSpace=wrap;rounded=0;dashed=1;labelBackgroundColor=default;fontColor=default;fontStyle=1" vertex="1" parent="1">
          <mxGeometry x="776" y="160" width="30" height="30" as="geometry" />
        </mxCell>
        <mxCell id="2phvOXHi10tVbed8jPcv-141" value="Error metric QC of cell type inference" style="rounded=1;whiteSpace=wrap;html=1;fontColor=default;strokeColor=default;fillColor=default;labelBackgroundColor=default;" vertex="1" parent="1">
          <mxGeometry x="-85" y="1392" width="110" height="60" as="geometry" />
        </mxCell>
        <mxCell id="2phvOXHi10tVbed8jPcv-144" value="8." style="text;html=1;strokeColor=none;fillColor=none;align=center;verticalAlign=middle;whiteSpace=wrap;rounded=0;dashed=1;labelBackgroundColor=default;fontColor=default;fontStyle=1" vertex="1" parent="1">
          <mxGeometry x="-20" y="1362" width="30" height="30" as="geometry" />
        </mxCell>
        <mxCell id="2phvOXHi10tVbed8jPcv-145" value="8." style="text;html=1;strokeColor=none;fillColor=none;align=center;verticalAlign=middle;whiteSpace=wrap;rounded=0;dashed=1;labelBackgroundColor=default;fontColor=default;fontStyle=1" vertex="1" parent="1">
          <mxGeometry x="53" y="1323" width="30" height="30" as="geometry" />
        </mxCell>
        <mxCell id="2phvOXHi10tVbed8jPcv-146" value="Cell type Error metric plot per region&lt;div style=&quot;text-align: left&quot;&gt;&lt;/div&gt;" style="rounded=0;whiteSpace=wrap;html=1;labelBackgroundColor=default;fontColor=default;strokeColor=default;fillColor=default;spacingLeft=6;spacingRight=6;" vertex="1" parent="1">
          <mxGeometry x="83" y="1310" width="154" height="56" as="geometry" />
        </mxCell>
        <mxCell id="2phvOXHi10tVbed8jPcv-147" value="Correlation matrix with first 6 PCS&lt;br&gt;&lt;div style=&quot;text-align: left&quot;&gt;&lt;/div&gt;" style="rounded=0;whiteSpace=wrap;html=1;labelBackgroundColor=default;fontColor=default;strokeColor=default;fillColor=default;spacingLeft=6;spacingRight=6;" vertex="1" parent="1">
          <mxGeometry x="806" y="225" width="154" height="46" as="geometry" />
        </mxCell>
        <mxCell id="2phvOXHi10tVbed8jPcv-148" value="2." style="text;html=1;strokeColor=none;fillColor=none;align=center;verticalAlign=middle;whiteSpace=wrap;rounded=0;dashed=1;labelBackgroundColor=default;fontColor=default;fontStyle=1" vertex="1" parent="1">
          <mxGeometry x="776" y="230" width="30" height="30" as="geometry" />
        </mxCell>
        <mxCell id="2phvOXHi10tVbed8jPcv-228" style="edgeStyle=orthogonalEdgeStyle;rounded=0;orthogonalLoop=1;jettySize=auto;html=1;exitX=0.786;exitY=0.996;exitDx=0;exitDy=0;entryX=0.75;entryY=0;entryDx=0;entryDy=0;labelBackgroundColor=default;fontSize=16;fontColor=default;strokeColor=#666666;fillColor=#f5f5f5;startArrow=none;startFill=0;exitPerimeter=0;dashed=1;dashPattern=1 1;endArrow=none;endFill=0;strokeWidth=5;" edge="1" parent="1" source="2phvOXHi10tVbed8jPcv-150" target="2phvOXHi10tVbed8jPcv-158">
          <mxGeometry relative="1" as="geometry">
            <Array as="points" />
          </mxGeometry>
        </mxCell>
        <mxCell id="2phvOXHi10tVbed8jPcv-150" value="Surrogate Variable Analysis&lt;br&gt;&lt;div style=&quot;text-align: left&quot;&gt;&lt;/div&gt;" style="rounded=1;whiteSpace=wrap;html=1;fontColor=default;strokeColor=default;fillColor=default;labelBackgroundColor=default;fontStyle=0" vertex="1" parent="1">
          <mxGeometry x="540" y="345" width="140" height="60" as="geometry" />
        </mxCell>
        <mxCell id="2phvOXHi10tVbed8jPcv-152" value="3." style="text;html=1;strokeColor=none;fillColor=none;align=center;verticalAlign=middle;whiteSpace=wrap;rounded=0;dashed=1;labelBackgroundColor=default;fontColor=default;fontStyle=1" vertex="1" parent="1">
          <mxGeometry x="776" y="325" width="30" height="30" as="geometry" />
        </mxCell>
        <mxCell id="2phvOXHi10tVbed8jPcv-153" value="Summary of SVA and Correlation matrices&lt;br&gt;&lt;div style=&quot;text-align: left&quot;&gt;&lt;/div&gt;" style="rounded=0;whiteSpace=wrap;html=1;labelBackgroundColor=default;fontColor=default;strokeColor=default;fillColor=default;spacingLeft=6;spacingRight=6;" vertex="1" parent="1">
          <mxGeometry x="806" y="317" width="154" height="46" as="geometry" />
        </mxCell>
        <mxCell id="2phvOXHi10tVbed8jPcv-155" value="If a high level of unexplained variation is present" style="text;html=1;strokeColor=none;fillColor=none;align=center;verticalAlign=middle;whiteSpace=wrap;rounded=0;fontColor=default;fontStyle=0" vertex="1" parent="1">
          <mxGeometry x="460" y="287" width="200" height="30" as="geometry" />
        </mxCell>
        <mxCell id="2phvOXHi10tVbed8jPcv-156" value="3." style="text;html=1;strokeColor=none;fillColor=none;align=center;verticalAlign=middle;whiteSpace=wrap;rounded=0;dashed=1;labelBackgroundColor=default;fontColor=default;fontStyle=1" vertex="1" parent="1">
          <mxGeometry x="540" y="317" width="30" height="30" as="geometry" />
        </mxCell>
        <mxCell id="2phvOXHi10tVbed8jPcv-157" value="Alternatively:" style="text;html=1;strokeColor=none;fillColor=none;align=center;verticalAlign=middle;whiteSpace=wrap;rounded=0;fontColor=default;fontStyle=0" vertex="1" parent="1">
          <mxGeometry x="493" y="413" width="230" height="30" as="geometry" />
        </mxCell>
        <mxCell id="2phvOXHi10tVbed8jPcv-165" style="edgeStyle=orthogonalEdgeStyle;rounded=0;orthogonalLoop=1;jettySize=auto;html=1;exitX=0.5;exitY=1;exitDx=0;exitDy=0;labelBackgroundColor=default;fontSize=22;fontColor=default;strokeColor=default;fillColor=default;entryX=0.5;entryY=0;entryDx=0;entryDy=0;" edge="1" parent="1" source="2phvOXHi10tVbed8jPcv-158" target="2phvOXHi10tVbed8jPcv-166">
          <mxGeometry relative="1" as="geometry">
            <mxPoint x="615" y="543" as="targetPoint" />
          </mxGeometry>
        </mxCell>
        <mxCell id="2phvOXHi10tVbed8jPcv-158" value="Regress betas against factors associated with unwanted variation&lt;br&gt;&lt;div style=&quot;text-align: left&quot;&gt;&lt;/div&gt;" style="rounded=1;whiteSpace=wrap;html=1;fontColor=default;strokeColor=default;fillColor=default;labelBackgroundColor=default;fontStyle=0" vertex="1" parent="1">
          <mxGeometry x="545" y="458.5" width="140" height="60" as="geometry" />
        </mxCell>
        <mxCell id="2phvOXHi10tVbed8jPcv-161" value="4." style="text;html=1;strokeColor=none;fillColor=none;align=center;verticalAlign=middle;whiteSpace=wrap;rounded=0;dashed=1;labelBackgroundColor=default;fontColor=default;fontStyle=1" vertex="1" parent="1">
          <mxGeometry x="776" y="470.5" width="30" height="30" as="geometry" />
        </mxCell>
        <mxCell id="2phvOXHi10tVbed8jPcv-162" value="Regression summary plots&lt;br&gt;&lt;div style=&quot;text-align: left&quot;&gt;&lt;/div&gt;" style="rounded=0;whiteSpace=wrap;html=1;labelBackgroundColor=default;fontColor=default;strokeColor=default;fillColor=default;spacingLeft=6;spacingRight=6;" vertex="1" parent="1">
          <mxGeometry x="806" y="462.5" width="154" height="46" as="geometry" />
        </mxCell>
        <mxCell id="2phvOXHi10tVbed8jPcv-164" value="4." style="text;html=1;strokeColor=none;fillColor=none;align=center;verticalAlign=middle;whiteSpace=wrap;rounded=0;dashed=1;labelBackgroundColor=default;fontColor=default;fontStyle=1" vertex="1" parent="1">
          <mxGeometry x="545" y="432.5" width="30" height="30" as="geometry" />
        </mxCell>
        <mxCell id="2phvOXHi10tVbed8jPcv-166" value="Extract residuals of regression&lt;br&gt;&lt;div style=&quot;text-align: left&quot;&gt;&lt;/div&gt;" style="rounded=1;whiteSpace=wrap;html=1;fontColor=default;strokeColor=default;fillColor=default;labelBackgroundColor=default;fontStyle=0" vertex="1" parent="1">
          <mxGeometry x="545" y="546" width="140" height="60" as="geometry" />
        </mxCell>
        <mxCell id="2phvOXHi10tVbed8jPcv-210" value="Cell type proportion analysis- lm / ANOVA against:&lt;br&gt;&lt;br&gt;1. Neuropathology Score&lt;br&gt;2. Clinical diagnosis&lt;br&gt;&lt;div style=&quot;text-align: left&quot;&gt;&lt;/div&gt;" style="rounded=1;whiteSpace=wrap;html=1;fontColor=default;strokeColor=default;fillColor=default;labelBackgroundColor=default;fontStyle=0" vertex="1" parent="1">
          <mxGeometry x="380" y="630" width="160" height="110" as="geometry" />
        </mxCell>
        <mxCell id="2phvOXHi10tVbed8jPcv-212" value="a. Statistical summaries&lt;br&gt;&lt;br&gt;b. Neuropathology scatterplots&lt;br&gt;&lt;br&gt;c. Groupwise jitter/boxplots OR&lt;br&gt;stacked bars&lt;br&gt;&lt;div style=&quot;text-align: left&quot;&gt;&lt;/div&gt;" style="rounded=0;whiteSpace=wrap;html=1;labelBackgroundColor=default;fontColor=default;strokeColor=default;fillColor=default;spacingLeft=6;spacingRight=6;" vertex="1" parent="1">
          <mxGeometry x="806" y="605" width="154" height="130" as="geometry" />
        </mxCell>
        <mxCell id="2phvOXHi10tVbed8jPcv-213" value="5." style="text;html=1;strokeColor=none;fillColor=none;align=center;verticalAlign=middle;whiteSpace=wrap;rounded=0;dashed=1;labelBackgroundColor=default;fontColor=default;fontStyle=1" vertex="1" parent="1">
          <mxGeometry x="387" y="600" width="30" height="30" as="geometry" />
        </mxCell>
        <mxCell id="2phvOXHi10tVbed8jPcv-214" value="5." style="text;html=1;strokeColor=none;fillColor=none;align=center;verticalAlign=middle;whiteSpace=wrap;rounded=0;dashed=1;labelBackgroundColor=default;fontColor=default;fontStyle=1" vertex="1" parent="1">
          <mxGeometry x="776" y="655" width="30" height="30" as="geometry" />
        </mxCell>
        <mxCell id="2phvOXHi10tVbed8jPcv-216" value="Epigenome Wide Association Analysis" style="text;html=1;strokeColor=none;fillColor=none;align=center;verticalAlign=middle;whiteSpace=wrap;rounded=0;fontColor=default;fontStyle=1;fontSize=22;labelBackgroundColor=default;" vertex="1" parent="1">
          <mxGeometry x="990" y="-7" width="530" height="30" as="geometry" />
        </mxCell>
        <mxCell id="2phvOXHi10tVbed8jPcv-217" value="Steps" style="text;html=1;strokeColor=none;fillColor=none;align=center;verticalAlign=middle;whiteSpace=wrap;rounded=0;fontColor=default;fontStyle=1;fontSize=16;labelBackgroundColor=default;" vertex="1" parent="1">
          <mxGeometry x="1184.5" y="29.379999999999995" width="230" height="30" as="geometry" />
        </mxCell>
        <mxCell id="2phvOXHi10tVbed8jPcv-218" value="Plots Generated" style="text;html=1;strokeColor=none;fillColor=none;align=center;verticalAlign=middle;whiteSpace=wrap;rounded=0;fontColor=default;fontStyle=1;fontSize=16;labelBackgroundColor=default;" vertex="1" parent="1">
          <mxGeometry x="1584.5" y="29.379999999999995" width="160" height="30" as="geometry" />
        </mxCell>
        <mxCell id="2phvOXHi10tVbed8jPcv-224" style="edgeStyle=orthogonalEdgeStyle;rounded=0;orthogonalLoop=1;jettySize=auto;html=1;exitX=0.25;exitY=1;exitDx=0;exitDy=0;labelBackgroundColor=default;fontSize=16;fontColor=default;strokeColor=default;fillColor=default;entryX=0.25;entryY=0;entryDx=0;entryDy=0;" edge="1" parent="1" source="2phvOXHi10tVbed8jPcv-219" target="2phvOXHi10tVbed8jPcv-226">
          <mxGeometry relative="1" as="geometry">
            <mxPoint x="1161.666666666667" y="332.38" as="targetPoint" />
          </mxGeometry>
        </mxCell>
        <mxCell id="2phvOXHi10tVbed8jPcv-219" value="&lt;div style=&quot;text-align: left&quot;&gt;&lt;b&gt;Phenotype file&lt;/b&gt;&lt;/div&gt;&lt;div style=&quot;text-align: left&quot;&gt;&lt;b&gt;&lt;br&gt;&lt;/b&gt;&lt;/div&gt;&lt;div style=&quot;text-align: left&quot;&gt;Covariates:&lt;/div&gt;&lt;div&gt;1. Demographic info&lt;br&gt;&lt;/div&gt;2. Surrogate Variables&lt;br&gt;3. Cell Type Information&lt;br&gt;&lt;br&gt;Independent test variables:&lt;br&gt;1. Pathology measures&lt;br&gt;2. Clinical groups&amp;nbsp;" style="rounded=1;whiteSpace=wrap;html=1;fontColor=default;strokeColor=default;fillColor=default;labelBackgroundColor=default;direction=south;" vertex="1" parent="1">
          <mxGeometry x="1121.5" y="64.38" width="166" height="170" as="geometry" />
        </mxCell>
        <mxCell id="2phvOXHi10tVbed8jPcv-225" style="edgeStyle=orthogonalEdgeStyle;rounded=0;orthogonalLoop=1;jettySize=auto;html=1;exitX=0.75;exitY=1;exitDx=0;exitDy=0;labelBackgroundColor=default;fontSize=16;fontColor=default;strokeColor=default;fillColor=default;entryX=0.939;entryY=0.002;entryDx=0;entryDy=0;entryPerimeter=0;" edge="1" parent="1" source="2phvOXHi10tVbed8jPcv-220" target="2phvOXHi10tVbed8jPcv-232">
          <mxGeometry relative="1" as="geometry">
            <mxPoint x="1431.5" y="532.38" as="targetPoint" />
            <Array as="points">
              <mxPoint x="1434" y="127" />
            </Array>
          </mxGeometry>
        </mxCell>
        <mxCell id="2phvOXHi10tVbed8jPcv-220" value="&lt;span style=&quot;font-weight: normal&quot;&gt;Nomalised Beta Matrix&lt;/span&gt;&lt;div style=&quot;text-align: left&quot;&gt;&lt;/div&gt;" style="rounded=1;whiteSpace=wrap;html=1;fontColor=default;strokeColor=default;fillColor=default;labelBackgroundColor=default;fontStyle=1" vertex="1" parent="1">
          <mxGeometry x="1319.5" y="81.38" width="150" height="46" as="geometry" />
        </mxCell>
        <mxCell id="2phvOXHi10tVbed8jPcv-221" value="qqplots&lt;br&gt;&lt;div style=&quot;text-align: left&quot;&gt;&lt;/div&gt;" style="rounded=0;whiteSpace=wrap;html=1;labelBackgroundColor=default;fontColor=default;strokeColor=default;fillColor=default;spacingLeft=6;spacingRight=6;" vertex="1" parent="1">
          <mxGeometry x="1584.5" y="553.88" width="175" height="46" as="geometry" />
        </mxCell>
        <mxCell id="2phvOXHi10tVbed8jPcv-223" value="Hypothesis 1. Neuropathology" style="text;html=1;strokeColor=none;fillColor=none;align=center;verticalAlign=middle;whiteSpace=wrap;rounded=0;fontColor=default;fontStyle=1;fontSize=16;labelBackgroundColor=default;" vertex="1" parent="1">
          <mxGeometry x="1165" y="250" width="260" height="30" as="geometry" />
        </mxCell>
        <mxCell id="2phvOXHi10tVbed8jPcv-230" style="edgeStyle=orthogonalEdgeStyle;rounded=0;orthogonalLoop=1;jettySize=auto;html=1;exitX=0.75;exitY=1;exitDx=0;exitDy=0;entryX=0.75;entryY=0;entryDx=0;entryDy=0;dashed=1;dashPattern=1 1;labelBackgroundColor=default;fontSize=16;fontColor=default;startArrow=none;startFill=0;strokeColor=default;fillColor=default;endArrow=none;endFill=0;strokeWidth=5;" edge="1" parent="1" source="2phvOXHi10tVbed8jPcv-226" target="2phvOXHi10tVbed8jPcv-227">
          <mxGeometry relative="1" as="geometry" />
        </mxCell>
        <mxCell id="2phvOXHi10tVbed8jPcv-226" value="&lt;b&gt;Optional: Only retain subset of NFT Free Cases / Parkinsonian cases&lt;/b&gt;&lt;br&gt;&lt;div style=&quot;text-align: left&quot;&gt;&lt;/div&gt;" style="rounded=1;whiteSpace=wrap;html=1;fontColor=default;strokeColor=default;fillColor=default;labelBackgroundColor=default;" vertex="1" parent="1">
          <mxGeometry x="1119" y="302.38" width="170" height="60.5" as="geometry" />
        </mxCell>
        <mxCell id="2phvOXHi10tVbed8jPcv-233" style="edgeStyle=orthogonalEdgeStyle;rounded=0;orthogonalLoop=1;jettySize=auto;html=1;exitX=0.355;exitY=1.036;exitDx=0;exitDy=0;entryX=0;entryY=0.5;entryDx=0;entryDy=0;labelBackgroundColor=default;fontSize=16;fontColor=default;startArrow=none;startFill=0;strokeColor=default;fillColor=default;exitPerimeter=0;" edge="1" parent="1" source="2phvOXHi10tVbed8jPcv-227" target="2phvOXHi10tVbed8jPcv-232">
          <mxGeometry relative="1" as="geometry">
            <Array as="points">
              <mxPoint x="1179.5" y="514.38" />
            </Array>
          </mxGeometry>
        </mxCell>
        <mxCell id="2phvOXHi10tVbed8jPcv-227" value="&lt;b&gt;Control for coincidence NFT pathology as covariate&lt;/b&gt;&lt;br&gt;&lt;div style=&quot;text-align: left&quot;&gt;&lt;/div&gt;" style="rounded=1;whiteSpace=wrap;html=1;fontColor=default;strokeColor=default;fillColor=default;labelBackgroundColor=default;" vertex="1" parent="1">
          <mxGeometry x="1119" y="405.38" width="170" height="50.5" as="geometry" />
        </mxCell>
        <mxCell id="2phvOXHi10tVbed8jPcv-231" value="AND/OR" style="text;html=1;strokeColor=none;fillColor=none;align=center;verticalAlign=middle;whiteSpace=wrap;rounded=0;fontColor=default;fontStyle=0;labelBackgroundColor=default;" vertex="1" parent="1">
          <mxGeometry x="1100" y="368.88" width="230" height="30" as="geometry" />
        </mxCell>
        <mxCell id="2phvOXHi10tVbed8jPcv-234" style="edgeStyle=orthogonalEdgeStyle;rounded=0;orthogonalLoop=1;jettySize=auto;html=1;exitX=0.5;exitY=1;exitDx=0;exitDy=0;labelBackgroundColor=default;fontSize=16;fontColor=default;startArrow=none;startFill=0;endArrow=classic;endFill=1;strokeColor=default;strokeWidth=1;fillColor=default;entryX=0.5;entryY=0;entryDx=0;entryDy=0;" edge="1" parent="1" source="2phvOXHi10tVbed8jPcv-232" target="2phvOXHi10tVbed8jPcv-235">
          <mxGeometry relative="1" as="geometry">
            <mxPoint x="1323.8809523809523" y="592.38" as="targetPoint" />
          </mxGeometry>
        </mxCell>
        <mxCell id="2phvOXHi10tVbed8jPcv-232" value="&lt;span style=&quot;font-weight: normal&quot;&gt;beta ~ BraakLBNumeric + Age + Sex + CellType.....&lt;/span&gt;&lt;div style=&quot;text-align: left&quot;&gt;&lt;/div&gt;" style="rounded=1;whiteSpace=wrap;html=1;fontColor=default;strokeColor=default;fillColor=default;labelBackgroundColor=default;fontStyle=1" vertex="1" parent="1">
          <mxGeometry x="1199" y="494.62" width="250" height="41.38" as="geometry" />
        </mxCell>
        <mxCell id="2phvOXHi10tVbed8jPcv-236" style="edgeStyle=orthogonalEdgeStyle;rounded=0;orthogonalLoop=1;jettySize=auto;html=1;exitX=1;exitY=0.5;exitDx=0;exitDy=0;entryX=0.897;entryY=1.093;entryDx=0;entryDy=0;labelBackgroundColor=default;fontSize=16;fontColor=default;startArrow=none;startFill=0;endArrow=classic;endFill=1;strokeColor=default;strokeWidth=2;fillColor=default;elbow=vertical;curved=1;entryPerimeter=0;dashed=1;" edge="1" parent="1" source="2phvOXHi10tVbed8jPcv-235" target="2phvOXHi10tVbed8jPcv-232">
          <mxGeometry relative="1" as="geometry">
            <Array as="points">
              <mxPoint x="1389.5" y="602.38" />
              <mxPoint x="1448.5" y="602.38" />
              <mxPoint x="1448.5" y="572.38" />
              <mxPoint x="1423.5" y="572.38" />
            </Array>
          </mxGeometry>
        </mxCell>
        <mxCell id="2phvOXHi10tVbed8jPcv-238" style="edgeStyle=orthogonalEdgeStyle;curved=1;rounded=0;orthogonalLoop=1;jettySize=auto;html=1;exitX=0.5;exitY=1;exitDx=0;exitDy=0;labelBackgroundColor=default;fontSize=16;fontColor=default;startArrow=none;startFill=0;endArrow=classic;endFill=1;strokeColor=default;strokeWidth=1;fillColor=default;elbow=vertical;entryX=0.5;entryY=0;entryDx=0;entryDy=0;" edge="1" parent="1" source="2phvOXHi10tVbed8jPcv-235" target="2phvOXHi10tVbed8jPcv-239">
          <mxGeometry relative="1" as="geometry">
            <mxPoint x="1324.5" y="662.38" as="targetPoint" />
          </mxGeometry>
        </mxCell>
        <mxCell id="2phvOXHi10tVbed8jPcv-235" value="&lt;span style=&quot;font-weight: normal&quot;&gt;Inspect inflation: &lt;br&gt;lamda / qqplot&lt;/span&gt;&lt;div style=&quot;text-align: left&quot;&gt;&lt;/div&gt;" style="rounded=1;whiteSpace=wrap;html=1;fontColor=default;strokeColor=default;fillColor=default;labelBackgroundColor=default;fontStyle=1" vertex="1" parent="1">
          <mxGeometry x="1259" y="575.38" width="130" height="37" as="geometry" />
        </mxCell>
        <mxCell id="2phvOXHi10tVbed8jPcv-237" value="If inflated: &lt;br&gt;Test additional covariates" style="text;html=1;strokeColor=default;fillColor=default;align=center;verticalAlign=middle;whiteSpace=wrap;rounded=0;fontColor=default;fontStyle=0;labelBackgroundColor=default;" vertex="1" parent="1">
          <mxGeometry x="1330" y="616.25" width="230" height="30" as="geometry" />
        </mxCell>
        <mxCell id="2phvOXHi10tVbed8jPcv-239" value="&lt;span style=&quot;font-weight: 400&quot;&gt;Multiple testing correction: FDR, Bonferroni, 9 x 10^-8&lt;/span&gt;&lt;br&gt;&lt;div style=&quot;text-align: left&quot;&gt;&lt;/div&gt;" style="rounded=1;whiteSpace=wrap;html=1;fontColor=default;strokeColor=default;fillColor=default;labelBackgroundColor=default;fontStyle=1" vertex="1" parent="1">
          <mxGeometry x="1259" y="651.63" width="130" height="61" as="geometry" />
        </mxCell>
        <mxCell id="2phvOXHi10tVbed8jPcv-243" value="1." style="text;html=1;strokeColor=default;fillColor=default;align=center;verticalAlign=middle;whiteSpace=wrap;rounded=0;dashed=1;labelBackgroundColor=default;fontColor=default;fontStyle=1" vertex="1" parent="1">
          <mxGeometry x="1259.5" y="545.38" width="30" height="30" as="geometry" />
        </mxCell>
        <mxCell id="2phvOXHi10tVbed8jPcv-244" value="2." style="text;html=1;strokeColor=default;fillColor=default;align=center;verticalAlign=middle;whiteSpace=wrap;rounded=0;dashed=1;labelBackgroundColor=default;fontColor=default;fontStyle=1" vertex="1" parent="1">
          <mxGeometry x="1259" y="622.38" width="30" height="30" as="geometry" />
        </mxCell>
        <mxCell id="2phvOXHi10tVbed8jPcv-245" value="1." style="text;html=1;strokeColor=default;fillColor=default;align=center;verticalAlign=middle;whiteSpace=wrap;rounded=0;dashed=1;labelBackgroundColor=default;fontColor=default;fontStyle=1" vertex="1" parent="1">
          <mxGeometry x="1554.5" y="561.88" width="30" height="30" as="geometry" />
        </mxCell>
        <mxCell id="2phvOXHi10tVbed8jPcv-247" value="a. Manhattan Plot&lt;br&gt;b. Significant Results Table&lt;br&gt;c. Individual cpg plots (violin/jitter)&lt;br&gt;&lt;div style=&quot;text-align: left&quot;&gt;&lt;/div&gt;" style="rounded=0;whiteSpace=wrap;html=1;labelBackgroundColor=default;fontColor=default;strokeColor=default;fillColor=default;spacingLeft=6;spacingRight=6;" vertex="1" parent="1">
          <mxGeometry x="1584.5" y="651.38" width="175" height="71" as="geometry" />
        </mxCell>
        <mxCell id="2phvOXHi10tVbed8jPcv-248" value="2." style="text;html=1;strokeColor=default;fillColor=default;align=center;verticalAlign=middle;whiteSpace=wrap;rounded=0;dashed=1;labelBackgroundColor=default;fontColor=default;fontStyle=1" vertex="1" parent="1">
          <mxGeometry x="1554.5" y="659.38" width="30" height="30" as="geometry" />
        </mxCell>
        <mxCell id="2phvOXHi10tVbed8jPcv-255" value="qqplots&lt;br&gt;&lt;div style=&quot;text-align: left&quot;&gt;&lt;/div&gt;" style="rounded=0;whiteSpace=wrap;html=1;labelBackgroundColor=default;fontColor=default;strokeColor=default;fillColor=default;spacingLeft=6;spacingRight=6;" vertex="1" parent="1">
          <mxGeometry x="2340" y="569.12" width="175" height="46" as="geometry" />
        </mxCell>
        <mxCell id="2phvOXHi10tVbed8jPcv-267" style="edgeStyle=orthogonalEdgeStyle;curved=1;rounded=0;orthogonalLoop=1;jettySize=auto;html=1;exitX=0.5;exitY=1;exitDx=0;exitDy=0;entryX=0.5;entryY=0;entryDx=0;entryDy=0;labelBackgroundColor=default;fontSize=16;fontColor=default;startArrow=none;startFill=0;endArrow=classic;endFill=1;strokeColor=default;strokeWidth=1;fillColor=default;elbow=vertical;" edge="1" parent="1" source="2phvOXHi10tVbed8jPcv-258" target="2phvOXHi10tVbed8jPcv-259">
          <mxGeometry relative="1" as="geometry" />
        </mxCell>
        <mxCell id="2phvOXHi10tVbed8jPcv-258" value="&lt;span style=&quot;font-weight: normal&quot;&gt;beta ~ Clinical Group + BraakLB + BraakNFT + Age + Sex + CellType.....&lt;/span&gt;&lt;div style=&quot;text-align: left&quot;&gt;&lt;/div&gt;" style="rounded=1;whiteSpace=wrap;html=1;fontColor=default;strokeColor=default;fillColor=default;labelBackgroundColor=default;fontStyle=1" vertex="1" parent="1">
          <mxGeometry x="1943" y="376.87" width="250" height="37" as="geometry" />
        </mxCell>
        <mxCell id="2phvOXHi10tVbed8jPcv-271" style="edgeStyle=orthogonalEdgeStyle;curved=1;rounded=0;orthogonalLoop=1;jettySize=auto;html=1;exitX=0.5;exitY=1;exitDx=0;exitDy=0;entryX=0.5;entryY=0;entryDx=0;entryDy=0;labelBackgroundColor=default;fontSize=16;fontColor=default;startArrow=none;startFill=0;endArrow=classic;endFill=1;strokeColor=default;strokeWidth=1;fillColor=default;elbow=vertical;" edge="1" parent="1" source="2phvOXHi10tVbed8jPcv-259" target="2phvOXHi10tVbed8jPcv-261">
          <mxGeometry relative="1" as="geometry" />
        </mxCell>
        <mxCell id="2phvOXHi10tVbed8jPcv-259" value="&lt;span style=&quot;font-weight: normal&quot;&gt;Inspect inflation: &lt;br&gt;lamda / qqplot&lt;/span&gt;&lt;div style=&quot;text-align: left&quot;&gt;&lt;/div&gt;" style="rounded=1;whiteSpace=wrap;html=1;fontColor=default;strokeColor=default;fillColor=default;labelBackgroundColor=default;fontStyle=1" vertex="1" parent="1">
          <mxGeometry x="2003.5" y="434.12" width="130" height="37" as="geometry" />
        </mxCell>
        <mxCell id="2phvOXHi10tVbed8jPcv-260" value="If inflated: &lt;br&gt;Test additional covariates" style="text;html=1;strokeColor=default;fillColor=default;align=center;verticalAlign=middle;whiteSpace=wrap;rounded=0;fontColor=default;fontStyle=0;labelBackgroundColor=default;" vertex="1" parent="1">
          <mxGeometry x="2074" y="488.12" width="230" height="30" as="geometry" />
        </mxCell>
        <mxCell id="2phvOXHi10tVbed8jPcv-274" style="edgeStyle=orthogonalEdgeStyle;curved=1;rounded=0;orthogonalLoop=1;jettySize=auto;html=1;exitX=0.5;exitY=1;exitDx=0;exitDy=0;entryX=0.5;entryY=0;entryDx=0;entryDy=0;labelBackgroundColor=default;fontSize=16;fontColor=default;startArrow=none;startFill=0;endArrow=classic;endFill=1;strokeColor=default;strokeWidth=1;fillColor=default;elbow=vertical;" edge="1" parent="1" source="2phvOXHi10tVbed8jPcv-261" target="2phvOXHi10tVbed8jPcv-273">
          <mxGeometry relative="1" as="geometry" />
        </mxCell>
        <mxCell id="2phvOXHi10tVbed8jPcv-261" value="&lt;span style=&quot;font-weight: 400&quot;&gt;Tukey-HSD&lt;/span&gt;&lt;br&gt;&lt;div style=&quot;text-align: left&quot;&gt;&lt;/div&gt;" style="rounded=1;whiteSpace=wrap;html=1;fontColor=default;strokeColor=default;fillColor=default;labelBackgroundColor=default;fontStyle=1" vertex="1" parent="1">
          <mxGeometry x="2003.5" y="530.88" width="130" height="23" as="geometry" />
        </mxCell>
        <mxCell id="2phvOXHi10tVbed8jPcv-262" value="1." style="text;html=1;strokeColor=default;fillColor=default;align=center;verticalAlign=middle;whiteSpace=wrap;rounded=0;dashed=1;labelBackgroundColor=default;fontColor=default;fontStyle=1" vertex="1" parent="1">
          <mxGeometry x="2310" y="577.12" width="30" height="30" as="geometry" />
        </mxCell>
        <mxCell id="2phvOXHi10tVbed8jPcv-263" value="a. Manhattan Plot&lt;br&gt;b. Significant Results Table&lt;br&gt;c. Individual cpg plots (violin/jitter)&lt;br&gt;&lt;div style=&quot;text-align: left&quot;&gt;&lt;/div&gt;" style="rounded=0;whiteSpace=wrap;html=1;labelBackgroundColor=default;fontColor=default;strokeColor=default;fillColor=default;spacingLeft=6;spacingRight=6;" vertex="1" parent="1">
          <mxGeometry x="2340" y="666.62" width="175" height="71" as="geometry" />
        </mxCell>
        <mxCell id="2phvOXHi10tVbed8jPcv-264" value="2." style="text;html=1;strokeColor=default;fillColor=default;align=center;verticalAlign=middle;whiteSpace=wrap;rounded=0;dashed=1;labelBackgroundColor=default;fontColor=default;fontStyle=1" vertex="1" parent="1">
          <mxGeometry x="2310" y="674.62" width="30" height="30" as="geometry" />
        </mxCell>
        <mxCell id="2phvOXHi10tVbed8jPcv-266" value="Hypothesis 2. Clinical" style="text;html=1;strokeColor=default;fillColor=default;align=center;verticalAlign=middle;whiteSpace=wrap;rounded=0;fontColor=default;fontStyle=1;fontSize=16;labelBackgroundColor=default;" vertex="1" parent="1">
          <mxGeometry x="1909.5" y="242.87" width="260" height="30" as="geometry" />
        </mxCell>
        <mxCell id="2phvOXHi10tVbed8jPcv-268" style="edgeStyle=orthogonalEdgeStyle;rounded=0;orthogonalLoop=1;jettySize=auto;html=1;exitX=0.999;exitY=0.595;exitDx=0;exitDy=0;entryX=0.9;entryY=0.989;entryDx=0;entryDy=0;labelBackgroundColor=default;fontSize=16;fontColor=default;startArrow=none;startFill=0;endArrow=classic;endFill=1;strokeColor=default;strokeWidth=2;fillColor=default;elbow=vertical;curved=1;entryPerimeter=0;dashed=1;exitPerimeter=0;" edge="1" parent="1" source="2phvOXHi10tVbed8jPcv-259" target="2phvOXHi10tVbed8jPcv-258">
          <mxGeometry relative="1" as="geometry">
            <mxPoint x="2133.5" y="471.92999999999995" as="sourcePoint" />
            <mxPoint x="2167.7500000000005" y="413.871" as="targetPoint" />
            <Array as="points">
              <mxPoint x="2133" y="479.12" />
              <mxPoint x="2154" y="479.12" />
              <mxPoint x="2154" y="480.12" />
              <mxPoint x="2193" y="480.12" />
              <mxPoint x="2193" y="450.12" />
              <mxPoint x="2168" y="450.12" />
            </Array>
          </mxGeometry>
        </mxCell>
        <mxCell id="2phvOXHi10tVbed8jPcv-269" value="Linear Model" style="text;html=1;strokeColor=none;fillColor=none;align=center;verticalAlign=middle;whiteSpace=wrap;rounded=0;fontColor=default;fontStyle=1;labelBackgroundColor=default;" vertex="1" parent="1">
          <mxGeometry x="1125" y="465" width="230" height="30" as="geometry" />
        </mxCell>
        <mxCell id="2phvOXHi10tVbed8jPcv-270" value="ANOVA" style="text;html=1;strokeColor=default;fillColor=default;align=center;verticalAlign=middle;whiteSpace=wrap;rounded=0;fontColor=default;fontStyle=1;labelBackgroundColor=default;" vertex="1" parent="1">
          <mxGeometry x="1863.5" y="348.12" width="230" height="30" as="geometry" />
        </mxCell>
        <mxCell id="2phvOXHi10tVbed8jPcv-280" style="edgeStyle=orthogonalEdgeStyle;rounded=0;orthogonalLoop=1;jettySize=auto;html=1;exitX=1;exitY=0.5;exitDx=0;exitDy=0;entryX=0.5;entryY=0;entryDx=0;entryDy=0;labelBackgroundColor=default;fontSize=16;fontColor=default;startArrow=none;startFill=0;endArrow=classic;endFill=1;strokeColor=default;strokeWidth=1;fillColor=default;elbow=vertical;" edge="1" parent="1" source="2phvOXHi10tVbed8jPcv-273" target="2phvOXHi10tVbed8jPcv-279">
          <mxGeometry relative="1" as="geometry">
            <Array as="points">
              <mxPoint x="2145" y="634.12" />
            </Array>
          </mxGeometry>
        </mxCell>
        <mxCell id="2phvOXHi10tVbed8jPcv-273" value="&lt;span style=&quot;font-weight: 400&quot;&gt;Multiple testing correction: FDR, Bonferroni, 9 x 10^-8&lt;/span&gt;&lt;br&gt;&lt;div style=&quot;text-align: left&quot;&gt;&lt;/div&gt;" style="rounded=1;whiteSpace=wrap;html=1;fontColor=default;strokeColor=default;fillColor=default;labelBackgroundColor=default;fontStyle=1" vertex="1" parent="1">
          <mxGeometry x="2003" y="572.5" width="130" height="61" as="geometry" />
        </mxCell>
        <mxCell id="2phvOXHi10tVbed8jPcv-279" value="&lt;span style=&quot;font-weight: 400&quot;&gt;Check potential outlier effects of NFT burdened cases&lt;/span&gt;&lt;br&gt;&lt;div style=&quot;text-align: left&quot;&gt;&lt;/div&gt;" style="rounded=1;whiteSpace=wrap;html=1;fontColor=default;strokeColor=default;fillColor=default;labelBackgroundColor=default;fontStyle=1" vertex="1" parent="1">
          <mxGeometry x="2079.5" y="659" width="130" height="61" as="geometry" />
        </mxCell>
        <mxCell id="2phvOXHi10tVbed8jPcv-281" style="edgeStyle=orthogonalEdgeStyle;rounded=0;orthogonalLoop=1;jettySize=auto;html=1;exitX=0.355;exitY=1.036;exitDx=0;exitDy=0;entryX=0;entryY=0.5;entryDx=0;entryDy=0;labelBackgroundColor=default;fontSize=16;fontColor=default;startArrow=none;startFill=0;strokeColor=default;fillColor=default;exitPerimeter=0;" edge="1" parent="1" source="2phvOXHi10tVbed8jPcv-282" target="2phvOXHi10tVbed8jPcv-258">
          <mxGeometry relative="1" as="geometry">
            <mxPoint x="1941.5" y="398.04999999999995" as="targetPoint" />
            <Array as="points">
              <mxPoint x="1922" y="395.12" />
              <mxPoint x="1943" y="395.12" />
            </Array>
          </mxGeometry>
        </mxCell>
        <mxCell id="2phvOXHi10tVbed8jPcv-282" value="&lt;b&gt;Remove cases with unclear clinical annotation&lt;/b&gt;&lt;br&gt;&lt;div style=&quot;text-align: left&quot;&gt;&lt;/div&gt;" style="rounded=1;whiteSpace=wrap;html=1;fontColor=default;strokeColor=default;fillColor=default;labelBackgroundColor=default;" vertex="1" parent="1">
          <mxGeometry x="1861.5" y="288.12" width="170" height="50.5" as="geometry" />
        </mxCell>
        <mxCell id="2phvOXHi10tVbed8jPcv-286" value="Steps" style="text;html=1;strokeColor=none;fillColor=none;align=center;verticalAlign=middle;whiteSpace=wrap;rounded=0;fontColor=default;fontStyle=1;fontSize=16;labelBackgroundColor=default;" vertex="1" parent="1">
          <mxGeometry x="1920" y="22.999999999999996" width="230" height="30" as="geometry" />
        </mxCell>
        <mxCell id="2phvOXHi10tVbed8jPcv-287" value="Plots Generated" style="text;html=1;strokeColor=none;fillColor=none;align=center;verticalAlign=middle;whiteSpace=wrap;rounded=0;fontColor=default;fontStyle=1;fontSize=16;labelBackgroundColor=default;" vertex="1" parent="1">
          <mxGeometry x="2320" y="22.999999999999996" width="160" height="30" as="geometry" />
        </mxCell>
        <mxCell id="2phvOXHi10tVbed8jPcv-288" value="1." style="text;html=1;strokeColor=default;fillColor=default;align=center;verticalAlign=middle;whiteSpace=wrap;rounded=0;dashed=1;labelBackgroundColor=default;fontColor=default;fontStyle=1" vertex="1" parent="1">
          <mxGeometry x="1963.5" y="425.88" width="30" height="30" as="geometry" />
        </mxCell>
        <mxCell id="2phvOXHi10tVbed8jPcv-289" value="2." style="text;html=1;strokeColor=default;fillColor=default;align=center;verticalAlign=middle;whiteSpace=wrap;rounded=0;dashed=1;labelBackgroundColor=default;fontColor=default;fontStyle=1" vertex="1" parent="1">
          <mxGeometry x="1973" y="596.5" width="30" height="30" as="geometry" />
        </mxCell>
        <mxCell id="2phvOXHi10tVbed8jPcv-292" value="" style="rounded=0;whiteSpace=wrap;html=1;labelBackgroundColor=default;fontSize=22;fontColor=default;strokeColor=default;fillColor=default;align=left;" vertex="1" parent="1">
          <mxGeometry x="1432.75" y="870" width="478.5" height="451" as="geometry" />
        </mxCell>
      </root>
    </mxGraphModel>
  </diagram>
</mxfile>
